<?xml version="1.0" encoding="UTF-8"?>
<svg id="Layer_1" data-name="Layer 1" xmlns="http://www.w3.org/2000/svg" xmlns:xlink="http://www.w3.org/1999/xlink" viewBox="0 0 281.81 202.63">
  <defs>
    <style>
      .cls-1 {
        fill: #004669;
      }

      .cls-1, .cls-2, .cls-3, .cls-4, .cls-5 {
        stroke-width: 0px;
      }

      .cls-6 {
        clip-path: url(#clippath);
      }

      .cls-2 {
        fill: none;
      }

      .cls-7 {
        clip-path: url(#clippath-1);
      }

      .cls-3 {
        fill: #0089cc;
      }

      .cls-4 {
        fill: #10151f;
      }

      .cls-5 {
        fill: #fff;
      }
    </style>
    <clipPath id="clippath">
      <ellipse class="cls-2" cx="140.75" cy="94.53" rx="84.66" ry="58.09"/>
    </clipPath>
    <clipPath id="clippath-1">
      <ellipse class="cls-2" cx="140.75" cy="94.53" rx="84.66" ry="58.09"/>
    </clipPath>
  </defs>
  <g id="Logo">
    <g>
      <circle class="cls-5" cx="268.7" cy="24.91" r="13.11"/>
      <polyline class="cls-5" points="251.26 101.32 268.7 101.32 268.7 31.76"/>
      <g>
        <path class="cls-5" d="M140.75,195.92c-58.89,0-106.81-42.44-106.81-94.6S81.85,6.71,140.75,6.71s106.81,42.44,106.81,94.6-47.91,94.6-106.81,94.6Z"/>
        <path class="cls-5" d="M140.75,13.42c55.19,0,100.1,39.43,100.1,87.89s-44.9,87.89-100.1,87.89-100.1-39.43-100.1-87.89S85.55,13.42,140.75,13.42M140.75,0C78.05,0,27.23,45.36,27.23,101.32s50.82,101.32,113.52,101.32,113.52-45.36,113.52-101.32S203.44,0,140.75,0h0Z"/>
      </g>
      <g>
        <ellipse class="cls-5" cx="140.75" cy="94.53" rx="84.66" ry="58.09"/>
        <path class="cls-5" d="M140.75,37.01c46.38,0,84.1,25.81,84.1,57.53s-37.73,57.53-84.1,57.53-84.1-25.81-84.1-57.53,37.73-57.53,84.1-57.53M140.75,36.45c-46.76,0-84.66,26.01-84.66,58.09s37.91,58.09,84.66,58.09,84.66-26.01,84.66-58.09-37.91-58.09-84.66-58.09h0Z"/>
      </g>
      <g class="cls-6">
        <path class="cls-5" d="M72.89,136.26s70.97,7.95,103.33-9.08c32.36-17.03,51.38-48.83,51.38-48.83l7.1,40.59-40.31,35.37-65.57,11.18-55.92-29.24Z"/>
      </g>
      <circle class="cls-5" cx="100.02" cy="94.53" r="18.54"/>
      <circle class="cls-5" cx="181.48" cy="94.53" r="18.54"/>
      <polyline class="cls-5" points="30.55 101.32 13.11 101.32 13.11 31.76"/>
      <circle class="cls-5" cx="13.11" cy="24.91" r="13.11"/>
    </g>
    <g>
      <circle class="cls-5" cx="268.7" cy="24.91" r="13.11"/>
      <polygon class="cls-5" points="275.41 108.03 251.26 108.03 251.26 94.6 261.99 94.6 261.99 31.76 275.41 31.76 275.41 108.03"/>
      <g>
        <path class="cls-4" d="M140.75,195.92c-58.89,0-106.81-42.44-106.81-94.6S81.85,6.71,140.75,6.71s106.81,42.44,106.81,94.6-47.91,94.6-106.81,94.6Z"/>
        <path class="cls-5" d="M140.75,13.42c55.19,0,100.1,39.43,100.1,87.89s-44.9,87.89-100.1,87.89-100.1-39.43-100.1-87.89S85.55,13.42,140.75,13.42M140.75,0C78.05,0,27.23,45.36,27.23,101.32s50.82,101.32,113.52,101.32,113.52-45.36,113.52-101.32S203.44,0,140.75,0h0Z"/>
      </g>
      <ellipse class="cls-3" cx="140.75" cy="94.53" rx="84.66" ry="58.09"/>
      <g class="cls-7">
        <path class="cls-1" d="M72.89,136.26s70.97,7.95,103.33-9.08c32.36-17.03,51.38-48.83,51.38-48.83l7.1,40.59-40.31,35.37-65.57,11.18-55.92-29.24Z"/>
      </g>
      <circle class="cls-5" cx="100.02" cy="94.53" r="18.54"/>
      <circle class="cls-5" cx="181.48" cy="94.53" r="18.54"/>
      <polygon class="cls-5" points="30.55 108.03 6.4 108.03 6.4 31.76 19.82 31.76 19.82 94.6 30.55 94.6 30.55 108.03"/>
      <circle class="cls-5" cx="13.11" cy="24.91" r="13.11"/>
    </g>
  </g>
</svg>