<?xml version="1.0" encoding="UTF-8"?>
<svg id="Layer_1" data-name="Layer 1" xmlns="http://www.w3.org/2000/svg" viewBox="0 0 75.09 85.79">
  <defs>
    <style>
      .cls-1 {
        fill: #fff;
        stroke-width: 0px;
      }
    </style>
  </defs>
  <path class="cls-1" d="M40.21,1.74l9.12,20.75,22.53-2.48c2.52-.28,4.17,2.57,2.67,4.62l-13.41,18.27,13.41,18.27c1.5,2.04-.15,4.89-2.67,4.62l-22.53-2.48-9.12,20.75c-1.02,2.32-4.31,2.32-5.33,0l-9.12-20.75-22.53,2.48c-2.52.28-4.17-2.57-2.67-4.62l13.41-18.27L.57,24.62c-1.5-2.04.15-4.89,2.67-4.62l22.53,2.48L34.88,1.74c1.02-2.32,4.31-2.32,5.33,0Z"/>
</svg>