<?xml version="1.0" encoding="UTF-8"?>
<svg id="Layer_1" data-name="Layer 1" xmlns="http://www.w3.org/2000/svg" viewBox="0 0 87.82 87.82">
  <defs>
    <style>
      .cls-1 {
        fill: #fff;
        stroke-width: 0px;
      }
    </style>
  </defs>
  <path class="cls-1" d="M58.48,0h-29.14c-2.32,0-4.54.92-6.17,2.56L2.56,23.16c-1.64,1.64-2.56,3.86-2.56,6.17v29.14c0,2.32.92,4.54,2.56,6.17l20.61,20.61c1.64,1.64,3.86,2.56,6.17,2.56h29.14c2.32,0,4.54-.92,6.17-2.56l20.61-20.61c1.64-1.64,2.56-3.86,2.56-6.17v-29.14c0-2.32-.92-4.54-2.56-6.17L64.65,2.56c-1.64-1.64-3.86-2.56-6.17-2.56Z"/>
</svg>